<svg class="brand-icon" xmlns="http://www.w3.org/2000/svg" version="1.1" viewBox="-5.0 -10.0 110.0 135.0"  fill="rgb(230, 253, 167)">
        <path d="m9.6484 37.121h-3.5586v49.18c9.8906-0.49219 19.754 1.4297 28.738 5.5977-6.5586-5.8008-14.801-8.7812-24-9.7305v0.003906c-0.64453-0.0625-1.1367-0.60547-1.1367-1.25v-43.801zm30.238 8.6719 0.003906 47.605c-7.1406-8.0898-16.68-12.281-27.711-13.609v-49.648c7.0703 1.4414 13.941 3.8008 19.68 7.5898-0.19922 0.43359-0.16406 0.94141 0.10156 1.3398 2.1445 2.7656 4.8477 5.0547 7.9297 6.7188zm30.242 8.207c-9.625-0.21875-19.086-2.5547-27.707-6.8398v46.238c7.1406-8.0898 16.68-12.281 27.711-13.609zm6.0898-0.48047v32.781c-9.8906-0.49219-19.754 1.4297-28.738 5.5977 2.1328-1.8789 4.4844-3.5 7-4.8281 5.2969-2.7148 11.07-4.375 17-4.8906 0.67578-0.027344 1.2148-0.58203 1.2188-1.2578v-26.922c1.1953-0.074219 2.3828-0.21094 3.5625-0.41016zm12.723-16.16 2.2812-8.5 2.6914-0.26953-2.5352 9.4102c-0.74219-0.42578-1.582-0.65234-2.4375-0.66016zm-49-19.871 19.68 14.172c0.25 0.19531 0.57031 0.28906 0.89062 0.26172l24.219-2.4219-5.5195 20.609c-0.62109 0.25-1.2617 0.45703-1.9102 0.62109-0.082031 0.007812-0.16406 0.027343-0.24219 0.058593-1.8594 0.42578-3.7617 0.65625-5.668 0.69141h-1.8906c-9.5742-0.33984-18.945-2.8477-27.41-7.3398-2.9336-1.5117-5.5547-3.5703-7.7188-6.0625l5.5312-20.602zm46.32 9.3281h0.16016l7.5312-0.75-27.113-19.465-33.168 3.3086 27.066 19.449 25.48-2.5391zm4.7383 14.344c-0.67188-1.1562-2.1484-1.5547-3.3086-0.89062-1.1602 0.66797-1.5586 2.1523-0.89062 3.3086 0.66797 1.1602 2.1484 1.5586 3.3086 0.89062 1.1562-0.66797 1.5547-2.1484 0.89062-3.3086zm-3.8594 17.941 1.5508-9.6094v-0.003907c0.13672-0.5625 0.089844-1.1523-0.13281-1.6875-0.46094-0.66797-1.3359-0.90625-2.0703-0.5625-0.45312 0.35938-0.78516 0.84766-0.94922 1.4023l-3.4609 9.0898c-0.80859 2.1484 4.6914 3.6406 5.0586 1.3711zm-20.84 8.4297c0.33984-0.097656 0.70703-0.042969 1.0078 0.14844 0.30078 0.1875 0.50781 0.49609 0.56641 0.84375 0.0625 0.34766-0.023438 0.70703-0.23828 0.98828-0.21875 0.28125-0.54297 0.46094-0.89844 0.48828-7.6016 1.3711-13.891 3.3984-20 7.7891-0.54688 0.27344-1.2109 0.10938-1.5742-0.38281-0.36328-0.49219-0.31641-1.1758 0.10547-1.6172 6.4492-4.6484 13-6.7695 21-8.2188zm-50.73 2.4688c-0.62109-0.17578-1.0117-0.79297-0.90234-1.4297 0.11328-0.63672 0.6875-1.0859 1.332-1.0391 8 1.4414 14.57 3.5898 21 8.2188 0.33203 0.16406 0.57812 0.46875 0.66406 0.83203 0.089844 0.35938 0.011719 0.74219-0.20703 1.043-0.22266 0.30078-0.5625 0.48828-0.93359 0.51172-0.37109 0.023437-0.73438-0.11719-0.99219-0.38672-6.1016-4.3984-12.359-6.4102-20-7.7891zm50.73-15.25c0.67188-0.097656 1.3008 0.35547 1.4219 1.0273 0.11719 0.66797-0.31641 1.3125-0.98438 1.4531-7.6016 1.3711-13.891 3.4102-20 7.7891-0.25391 0.26953-0.61719 0.41016-0.98828 0.38672-0.375-0.023438-0.71484-0.21094-0.9375-0.51172-0.21875-0.30078-0.29688-0.67969-0.20703-1.043 0.085937-0.36328 0.33203-0.66797 0.66406-0.83203 6.4492-4.6484 13-6.7695 21-8.2305zm-50.73 2.4805c-0.32812-0.0625-0.61719-0.25-0.80469-0.52344-0.1875-0.27344-0.25781-0.60938-0.19531-0.9375 0.13672-0.67188 0.78125-1.1172 1.4609-1 7.9688 1.4297 14.547 3.5703 20.969 8.2305 0.33203 0.16406 0.57812 0.46875 0.66406 0.83203 0.089844 0.35938 0.011719 0.74219-0.20703 1.043-0.22266 0.30078-0.5625 0.48828-0.93359 0.51172-0.37109 0.023437-0.73438-0.11719-0.99219-0.38672-6.1016-4.3906-12.359-6.4102-20-7.7891zm0-12.77c-0.36328-0.015626-0.70312-0.18359-0.93359-0.46875-0.22656-0.28125-0.32031-0.64844-0.25781-1.0078s0.27734-0.67188 0.58594-0.85938c0.3125-0.19141 0.6875-0.23438 1.0352-0.125 8 1.4414 14.57 3.5898 21 8.2188 0.42188 0.44531 0.46875 1.125 0.10547 1.6172-0.36328 0.49609-1.0273 0.65625-1.5742 0.38281-6.0898-4.3672-12.352-6.3789-19.961-7.7578z" fill-rule="evenodd" />
       </svg>