<svg xmlns="http://www.w3.org/2000/svg" data-name="Layer 1" viewBox="0 0 100 125" x="0px" y="0px"><path d="M92.38,36.28a9.39,9.39,0,0,0-10.44-1.66V25.56a13.14,13.14,0,0,0,3.33-9,13.5,13.5,0,0,0-13.63-13H19a2.47,2.47,0,0,0-.76.13A12.34,12.34,0,0,0,11.54,6.2,16.72,16.72,0,0,0,5.08,17.79L.54,63.36a4.62,4.62,0,0,0,4.15,5.05l9.42.92V83.87a7.31,7.31,0,0,0,7.3,7.3H37.84L36.76,96.5a2.5,2.5,0,0,0,3.1,2.92l17.9-4.79a2.51,2.51,0,0,0,1.18-.7l2.58-2.75H74.63a7.31,7.31,0,0,0,7.3-7.3V69.44h0l15-16a9.41,9.41,0,0,0-.41-13.28ZM85.8,38.73A4.27,4.27,0,0,1,89,39.92l4.15,3.91A4.41,4.41,0,0,1,93.29,50l-.9,1L81.84,41.06l.89-.95A4.37,4.37,0,0,1,85.8,38.73ZM58.27,87.32A16.18,16.18,0,0,0,55.85,83l29.7-31.55L89,54.64ZM78.41,44.7,81.91,48,52.21,79.54a16.18,16.18,0,0,0-4.49-2.16Zm1.85-28A8.25,8.25,0,0,1,72,25.05H27.57l.17-.17a13.35,13.35,0,0,0,3.49-10.3q0-.53-.13-1a11.64,11.64,0,0,0-2.14-5H71.63A8.48,8.48,0,0,1,80.26,16.68Zm-56.2,4.83a8.48,8.48,0,0,1-5,2.64V21a2.3,2.3,0,0,1,2.3-2.3h4.37A8.42,8.42,0,0,1,24.06,21.51Zm-18.5,42,4.5-45.19a11.71,11.71,0,0,1,4.52-8.11,7.43,7.43,0,0,1,7.29-1A6.73,6.73,0,0,1,26,13.66H21.41a7.31,7.31,0,0,0-7.3,7.3V64.31Zm15.86,22.7a2.3,2.3,0,0,1-2.3-2.3V30.05H72a13.23,13.23,0,0,0,4.92-.95V39h0L41.08,77.13a2.5,2.5,0,0,0-.63,1.21l-1.6,7.83Zm23.44-4.33A11.25,11.25,0,0,1,54,90.45L42.46,93.54Zm32.09,2a2.3,2.3,0,0,1-2.3,2.3H66.21L76.94,74.75Z"/></svg>