<svg xmlns="http://www.w3.org/2000/svg" version="1.1" viewBox="-5.0 -10.0 110.0 135.0">
 <g>
  <path d="m8.332 85.418h41.668c0.55078 0 1.082-0.21875 1.4727-0.61328 0.39062-0.39063 0.60938-0.91797 0.60938-1.4727v-4.1641c-0.003906-4.5781-1.3789-9.0469-3.9492-12.836-2.5664-3.7891-6.207-6.7227-10.457-8.4258 4.7344-3.0742 7.7344-8.2031 8.0938-13.832 0.03125-0.10547 0.050781-0.21484 0.0625-0.32422-0.007812-0.066406-0.023437-0.13281-0.039062-0.19922 0.011719-0.28125 0.039062-0.55859 0.039062-0.84375 0.12891-4.5547-1.5508-8.9766-4.6758-12.293-3.1211-3.3203-7.4336-5.2656-11.988-5.4141-4.5547 0.14844-8.8672 2.0938-11.992 5.4141-3.1211 3.3164-4.8047 7.7383-4.6758 12.293 0 0.28516 0.027344 0.5625 0.039062 0.84375-0.015624 0.066407-0.027343 0.13281-0.039062 0.19922 0.011719 0.10938 0.035156 0.21875 0.066406 0.32031 0.35938 5.6328 3.3594 10.762 8.0898 13.836-4.25 1.7031-7.8906 4.6367-10.457 8.4258-2.5664 3.7891-3.9414 8.2578-3.9492 12.836v4.168-0.003907c0 0.55469 0.21875 1.082 0.60938 1.4727 0.39062 0.39453 0.92188 0.61328 1.4727 0.61328zm20.836-56.25c6.7812 0.26562 12.211 5.7148 12.449 12.5h-4.5742l-1.6875-6.7539v-0.003906c-0.19531-0.77734-0.82422-1.375-1.6094-1.5352-0.78906-0.16016-1.5977 0.14844-2.0781 0.79297l-5.625 7.5h-9.3281c0.23828-6.7852 5.668-12.234 12.453-12.5zm-12.152 16.664h9.0273c1.3086 0 2.543-0.61719 3.332-1.6641l3-4 0.62891 2.5078-0.003906 0.003907c0.46484 1.8555 2.1328 3.1562 4.043 3.1523h4.2734c-1.1016 5.8945-6.1562 10.23-12.148 10.418-5.9961-0.1875-11.051-4.5234-12.152-10.418zm18.504 15.715c-1.4531 2.0703-3.8242 3.3008-6.3516 3.3008-2.5273 0-4.8984-1.2305-6.3477-3.3008 4.0977-1.5078 8.5977-1.5078 12.699 0zm-25.102 17.621c0.003906-6.3867 3.2656-12.332 8.6445-15.77 2.1719 3.4922 5.9922 5.6172 10.105 5.6172s7.9336-2.125 10.105-5.6172c5.3789 3.4375 8.6367 9.3828 8.6445 15.77v2.082h-5.2109v-2.082c0-1.1523-0.92969-2.0859-2.082-2.0859s-2.082 0.93359-2.082 2.0859v2.082h-18.75v-2.082c0-1.1523-0.93359-2.0859-2.0859-2.0859-1.1484 0-2.082 0.93359-2.082 2.0859v2.082h-5.207z"/>
  <path d="m93.75 16.668c0-0.55469-0.21875-1.082-0.60938-1.4727-0.39062-0.39453-0.92188-0.61328-1.4727-0.61328h-8.3359c-1.1484 0-2.082 0.93359-2.082 2.0859 0 1.1484 0.93359 2.082 2.082 2.082h3.3047l-16.07 16.07-4.8281-3.2188c-0.73438-0.49219-1.6992-0.46484-2.4023 0.066407l-8.332 6.25h-0.003906c-0.44141 0.32812-0.73828 0.82422-0.81641 1.3711-0.078125 0.54688 0.0625 1.1055 0.39453 1.5469 0.33203 0.44141 0.82812 0.73437 1.375 0.8125 0.54688 0.078124 1.1055-0.066407 1.5469-0.39844l7.1562-5.3633 5.0195 3.3477c0.82812 0.55078 1.9297 0.44141 2.6289-0.26172l17.277-17.277v3.3047c0 1.1523 0.93359 2.082 2.0859 2.082 1.1484 0 2.082-0.92969 2.082-2.082z"/>
  <path d="m54.168 62.5h37.5c1.1484 0 2.082-0.93359 2.082-2.082 0-1.1523-0.93359-2.0859-2.082-2.0859h-1.043v-20.832c0-1.1523-0.93359-2.082-2.082-2.082-1.1523 0-2.0859 0.92969-2.0859 2.082v20.832h-6.25v-16.664c0-1.1523-0.92969-2.0859-2.082-2.0859s-2.082 0.93359-2.082 2.0859v16.668h-6.25v-10.418c0-1.1523-0.93359-2.0859-2.0859-2.0859-1.1484 0-2.082 0.93359-2.082 2.0859v10.418h-6.25v-8.3359c0-1.1523-0.93359-2.082-2.082-2.082-1.1523 0-2.0859 0.92969-2.0859 2.082v8.332h-1.0391c-1.1523 0-2.0859 0.93359-2.0859 2.0859 0 1.1484 0.93359 2.082 2.0859 2.082z"/>
 </g>
<text x="0.0" y="117.5" font-size="5.0" font-weight="bold" font-family="Arbeit Regular, Helvetica, Arial-Unicode, Arial, Sans-serif" fill="#000000">Created by Anggara Putra</text><text x="0.0" y="122.5" font-size="5.0" font-weight="bold" font-family="Arbeit Regular, Helvetica, Arial-Unicode, Arial, Sans-serif" fill="#000000">from Noun Project</text></svg>