<svg xmlns="http://www.w3.org/2000/svg" xmlns:xlink="http://www.w3.org/1999/xlink" viewBox="0 0 100 125" version="1.1" x="0px" y="0px"><title>ic-31</title><desc>Created with Sketch.</desc><g stroke="none" stroke-width="1" fill="none" fill-rule="evenodd"><g transform="translate(-195.000000, -1636.000000)" fill="#000000"><g transform="translate(195.000000, 1186.000000)"><path d="M44.0126765,522.276794 C49.7203337,522.276794 55.0273517,520.565091 59.480834,517.649394 L63.5278707,521.693654 L63.3304543,525.485511 C57.6982798,528.946632 51.0964423,530.980366 44.0155797,530.980366 C23.6062051,530.980366 7,514.385555 7,493.990183 C7,473.594812 23.6062051,457 44.0155797,457 C64.4249542,457 81.0311593,473.594812 81.0311593,493.990183 C81.0311593,501.066188 78.9960282,507.663496 75.5325312,513.288905 L71.7351683,513.489087 L67.6910347,509.447728 C70.6087334,504.997301 72.318708,499.693924 72.318708,493.990183 C72.318708,478.393381 59.6201868,465.703573 44.0126765,465.703573 C28.4051662,465.703573 15.706645,478.393381 15.706645,493.990183 C15.706645,509.586985 28.4051662,522.276794 44.0126765,522.276794 Z M62.7672368,504.527308 L56.1566898,497.918396 C56.5602322,496.673785 56.8360345,495.37115 56.8360345,493.990183 C56.8360345,486.922882 51.0848296,481.175623 44.0126765,481.175623 C36.9405234,481.175623 31.1893184,486.922882 31.1893184,493.990183 C31.1893184,501.057484 36.9405234,506.804743 44.0126765,506.804743 C45.3945914,506.804743 46.6981205,506.52913 47.9464891,506.122963 L54.5570361,512.731876 C51.4390179,514.489998 47.8448777,515.508316 44.0126765,515.508316 C32.1415623,515.508316 22.4797703,505.853153 22.4797703,493.990183 C22.4797703,482.127214 32.1415623,472.472051 44.0126765,472.472051 C55.8837906,472.472051 65.5455827,482.124313 65.5455827,493.990183 C65.5455827,497.816854 64.5294687,501.408528 62.7672368,504.527308 Z M46.9158592,491.088992 C45.3655596,491.088992 43.9081619,491.69244 42.813662,492.78909 C40.8220787,494.779307 40.5840177,497.860372 42.0936727,500.114597 C39.4750019,499.29356 37.5618045,496.876868 37.5618045,493.990183 C37.5618045,490.430422 40.4504713,487.543737 44.0126765,487.543737 C46.8984401,487.543737 49.3138881,489.44982 50.138392,492.063792 C49.1919544,491.428432 48.0800355,491.088992 46.9158592,491.088992 Z M92.3187337,529.158419 C92.9196925,529.758965 93.1461408,530.638026 92.9051766,531.45326 C92.6671157,532.271396 92.0022868,532.892251 91.1719766,533.075026 L86.1988246,534.174577 C85.3278697,534.366056 84.6427186,535.039132 84.4365926,535.906588 L83.170805,541.212866 C82.9762917,542.033903 82.3492043,542.68377 81.5392163,542.912964 C81.327284,542.970988 81.1153516,543 80.9034193,543 C80.2937509,543 79.6985984,542.759201 79.2573147,542.31822 L66.7707258,529.837297 C66.3033134,529.373107 66.0565429,528.729042 66.091381,528.070472 L66.4862139,520.553486 L44.8575026,498.939615 C43.7223582,497.805249 43.7223582,495.971697 44.8575026,494.837331 C45.4236233,494.271599 46.1668381,493.987282 46.9100528,493.987282 C47.6532676,493.987282 48.3964824,494.271599 48.962603,494.837331 L70.5913143,516.451203 L78.1163639,516.056641 C78.1570084,516.05374 78.197653,516.05374 78.2382975,516.05374 C78.8566755,516.05374 79.4489247,516.29744 79.8873053,516.735519 L92.3187337,529.158419 Z"/></g></g></g></svg>